<?xml version="1.0" standalone="no"?>
<!DOCTYPE svg PUBLIC "-//W3C//DTD SVG 20010904//EN"
 "http://www.w3.org/TR/2001/REC-SVG-20010904/DTD/svg10.dtd">
<svg version="1.0" xmlns="http://www.w3.org/2000/svg"
 width="524.000000pt" height="524.000000pt" viewBox="0 0 524.000000 524.000000"
 preserveAspectRatio="xMidYMid meet">
<metadata>
Created by potrace 1.11, written by Peter Selinger 2001-2013
</metadata>
<g transform="translate(0.000000,524.000000) scale(0.100000,-0.100000)"
fill="#000000" stroke="none">
<path d="M1295 4239 c-66 -13 -78 -17 -130 -34 -206 -69 -395 -227 -498 -415
-38 -69 -83 -193 -93 -256 -3 -22 -8 -42 -11 -47 -9 -15 -4 -224 6 -284 17
-93 51 -182 135 -356 79 -163 156 -325 208 -437 17 -36 68 -143 114 -239 46
-95 84 -175 84 -176 0 -2 36 -79 81 -171 45 -93 94 -198 111 -234 82 -177 142
-300 148 -300 4 0 17 24 30 52 13 29 66 140 117 247 51 106 93 194 93 196 0 1
35 76 79 166 92 193 159 333 211 444 21 44 65 136 97 205 33 69 70 147 83 175
12 27 44 93 70 146 44 90 80 191 95 264 3 17 8 41 10 55 3 14 6 61 6 105 7
434 -293 803 -721 889 -79 16 -258 18 -325 5z m267 -576 c99 -44 159 -131 166
-240 11 -161 -106 -293 -266 -299 -164 -7 -292 116 -293 280 -2 205 206 341
393 259z"/>
<path d="M3555 3433 c-54 -29 -287 -207 -616 -474 -178 -144 -340 -273 -360
-286 l-37 -24 -93 25 c-52 14 -108 30 -124 34 -43 12 -52 6 -79 -51 -13 -29
-46 -99 -74 -157 -50 -106 -108 -228 -187 -395 -23 -49 -68 -144 -100 -210
-117 -244 -158 -332 -191 -403 l-34 -74 43 7 c23 4 81 20 129 36 160 52 249
109 302 192 19 29 53 66 77 81 46 31 80 60 178 153 39 37 85 69 111 79 87 33
291 135 381 190 319 198 556 453 709 767 59 120 52 116 140 72 115 -58 140
-75 259 -176 93 -79 216 -210 361 -384 192 -232 358 -390 595 -567 206 -154
248 -177 272 -145 31 40 27 47 -124 196 -256 253 -367 389 -588 717 -59 88
-132 189 -161 226 -100 124 -232 223 -357 265 -58 20 -132 88 -230 211 -86
108 -135 131 -202 95z"/>
<path d="M3727 2398 c-206 -148 -319 -245 -430 -368 -44 -49 -197 -270 -197
-285 0 -12 -87 -119 -147 -180 -32 -33 -126 -119 -208 -191 -203 -178 -325
-308 -325 -346 0 -21 33 -48 59 -48 12 0 63 34 119 79 116 94 269 199 450 310
114 70 136 80 150 69 10 -7 18 -13 20 -14 9 -5 -72 -159 -111 -210 -25 -33
-49 -72 -52 -86 -8 -31 16 -58 52 -58 22 0 181 86 346 187 29 18 68 41 88 52
19 11 41 27 48 35 8 9 18 16 23 16 10 0 104 68 141 102 33 31 39 54 52 188 9
101 39 323 50 378 23 116 64 245 91 287 31 49 17 120 -29 143 -56 29 -72 24
-190 -60z"/>
<path d="M829 2104 c-66 -57 -138 -131 -244 -249 -94 -105 -99 -110 -276 -291
-144 -147 -181 -198 -246 -334 -52 -111 -58 -130 -40 -130 8 0 20 7 27 15 6 8
64 45 128 84 65 38 138 88 164 110 25 23 53 41 61 41 26 0 246 69 327 102 95
39 157 81 245 164 39 36 80 73 93 81 12 8 22 21 22 28 0 7 -35 87 -78 176 -43
90 -87 183 -97 207 -10 23 -22 42 -25 42 -3 0 -31 -21 -61 -46z"/>
</g>
</svg>
