<svg xmlns="http://www.w3.org/2000/svg" viewBox="0 0 278.01 57.41"><defs><style>.cls-1{fill:#fff;}</style></defs><title>staze-text-white@vector</title><g id="Layer_2" data-name="Layer 2"><g id="Layer_1-2" data-name="Layer 1"><path class="cls-1" d="M23,30.59A12.65,12.65,0,0,0,17,28.67a4.7,4.7,0,0,0-3.16,1,2.38,2.38,0,0,0-.69,1.54,1.8,1.8,0,0,0,1.08,1.54,20.67,20.67,0,0,0,3.31,1.16l2.93.92a14.6,14.6,0,0,1,5.7,3,8.18,8.18,0,0,1,2.7,6.55,12.44,12.44,0,0,1-3.55,9c-3.39,3.39-7.55,3.93-11.17,3.93A20.43,20.43,0,0,1,0,52.4l4.7-7.47a19.26,19.26,0,0,0,3.78,2.54,10.38,10.38,0,0,0,4.62,1.08,6.22,6.22,0,0,0,3.47-.77,2.94,2.94,0,0,0,1.15-2.24,2.27,2.27,0,0,0-1.23-2,14.6,14.6,0,0,0-3.39-1.23l-2.77-.85A13.75,13.75,0,0,1,4.78,38.3a8.48,8.48,0,0,1-2.47-6.24,10.63,10.63,0,0,1,3.32-7.94c3.08-2.85,7.24-3.47,10.4-3.47a21.66,21.66,0,0,1,11.4,2.93Z"/><path class="cls-1" d="M46.85,30.75V56.18H35.75V30.75H31.9V21.81h3.85V10.71h11.1v11.1h6.86v8.94Z"/><path class="cls-1" d="M84.84,21.81H95.93V56.18H84.84V52a11.45,11.45,0,0,1-10.18,5.32c-4.93,0-9.09-1.23-12.86-5.24a18.14,18.14,0,0,1-5-12.87A19.56,19.56,0,0,1,62.1,25.35a16.61,16.61,0,0,1,11.95-4.7c2.93,0,7.63.69,10.79,5ZM70.73,32.67a8.62,8.62,0,0,0-2.54,6.24,8.87,8.87,0,0,0,2.31,6.17,9.11,9.11,0,0,0,6.55,2.7,8.22,8.22,0,0,0,5.78-2.39A9.12,9.12,0,0,0,83,32.6a9.29,9.29,0,0,0-6.17-2.39A8.78,8.78,0,0,0,70.73,32.67Z"/><path class="cls-1" d="M120,46.93h16.26v9.25H101.17l17.88-25.12H103.87V21.81h33.9Z"/><path class="cls-1" d="M178.22,40.92H152.56a9.41,9.41,0,0,0,2.08,5.85,7.46,7.46,0,0,0,5.71,2.16,9.19,9.19,0,0,0,4.47-1,6.78,6.78,0,0,0,2.39-2.85l10.47,1.08a15.38,15.38,0,0,1-6.62,8.63c-3.32,2-7,2.54-10.87,2.54-5.16,0-9.71-.92-13.71-4.93a18.45,18.45,0,0,1-5.17-13.25,19.62,19.62,0,0,1,5.24-13.57c4.16-4.16,9.33-4.93,13.18-4.93s9.4.69,13.64,5.16c4.08,4.32,4.85,9.71,4.85,14ZM168,34.29a8.82,8.82,0,0,0-2.24-4,8.16,8.16,0,0,0-10.86.31,7.75,7.75,0,0,0-1.93,3.7Z"/><path class="cls-1" d="M194,43.38a7,7,0,1,1-7,7A6.94,6.94,0,0,1,194,43.38Z"/><path class="cls-1" d="M209.35,0h11.1V25.89a13.89,13.89,0,0,1,4.16-3.54,12.85,12.85,0,0,1,6.7-1.47c2.7,0,6.71.39,9.71,3.47,3.16,3.16,3.39,7.4,3.39,10V56.18H233.32V38.53c0-2.39-.08-5.16-1.85-6.86a6.32,6.32,0,0,0-4.32-1.54,6,6,0,0,0-4.39,1.7c-2.24,2.15-2.31,5.47-2.31,7.16V56.18h-11.1Z"/><path class="cls-1" d="M253,21.81h11.1V27.2a12.38,12.38,0,0,1,4.31-4.78A10.7,10.7,0,0,1,274.39,21a11.06,11.06,0,0,1,3.62.54l-.62,10.4a10.46,10.46,0,0,0-5-1.23A7.27,7.27,0,0,0,266.83,33c-2.46,2.62-2.69,6.32-2.69,9.25v14H253Z"/></g></g></svg>