<svg xmlns="http://www.w3.org/2000/svg" viewBox="0 0 280.63 258.44"><defs><style>.cls-1{fill:#288c07;}.cls-2,.cls-4{fill:#1c2123;}.cls-3{fill:#ed1c24;}.cls-4{font-size:77.05px;font-family:FuturaPT-Heavy, Futura PT;font-weight:800;}.cls-5{letter-spacing:0.03em;}</style></defs><title>staze-hr-logo@vector</title><g id="Layer_2" data-name="Layer 2"><g id="Layer_1-2" data-name="Layer 1"><path class="cls-1" d="M61.56,127.51,71.75,149c-5.12,3.55-9.1,9.22-14.92,11.95a102,102,0,0,1-20.74,6.78,27,27,0,0,1-2.34,2.11c-4.73,4-11,6.38-15.55,10.43a.49.49,0,0,1-.75-.46c4.05-8.77,5.25-13.22,12.26-20.05,6.09-6.1,12.25-12.26,17.89-18.81C51.65,136.36,56.27,131.33,61.56,127.51Z"/><path class="cls-1" d="M274.85,149.17c-13.4-9.28-25.65-18.69-36.3-31.11-9.58-11.51-19-23.82-32.48-31.62a24.74,24.74,0,0,0-7.24-3c-4.79,13-16.07,27.58-26.61,36a120.52,120.52,0,0,1-32.77,18.12c-2.1,2.22-4.32,4.46-6.73,6.58a58.31,58.31,0,0,1-7.85,5.9,16.55,16.55,0,0,1-4.22,5.93c-5.49,4.28-14.14,7.11-20.66,8.24l30.78-64.83c4.23.58,8.39,2,12.73,3.14h.91c1.88-.23,38.12-31.35,49.92-38.81,7.92-5.47,12.48,11.51,20.74,14.53,13.9,5,19.49,13.68,27.47,25.7a200.3,200.3,0,0,0,35.38,41.2C280,147,277.18,150.77,274.85,149.17Z"/><path class="cls-1" d="M214.61,118.46c2.34-3.93-2.68-9.17-6.89-6.32-14.36,10.14-25.59,18.12-34.59,33.9-8,14.42-24.73,22.62-34.59,36.3-1.88,2.51,2.11,4.9,4.27,3,10-9,21.83-16,33.4-23a4.78,4.78,0,0,0,2.1,1.37c.46,0-2.56,5.64-2.84,6a10.94,10.94,0,0,1-.75,1.65,47.49,47.49,0,0,0-4.61,6.44c-1.71,2.34,1.37,4.67,3.47,3.53,2.17-1,31.12-17.43,32.2-20.91C207.49,160.17,207.26,131.23,214.61,118.46Z"/><path class="cls-2" d="M126.31,15.26a52.13,52.13,0,0,0-82.4,62.21h0l37.44,78.84h0l8.11,17.09c2.71-5.71,8.15-17.11,8.15-17.11l37.86-79.72A52.14,52.14,0,0,0,126.31,15.26ZM89.45,66.2a16.78,16.78,0,1,1,16.78-16.77A16.77,16.77,0,0,1,89.45,66.2Z"/><path class="cls-3" d="M89.45,18.17a31.26,31.26,0,1,0,31.26,31.26A31.26,31.26,0,0,0,89.45,18.17Zm0,48a16.78,16.78,0,1,1,16.78-16.77A16.77,16.77,0,0,1,89.45,66.2Z"/><text class="cls-4" transform="translate(0 238.41)">staz<tspan class="cls-5" x="141.01" y="0">e</tspan><tspan x="185.62" y="0">.hr</tspan></text></g></g></svg>