<svg xmlns="http://www.w3.org/2000/svg" viewBox="0 0 261.21 186.03"><defs><style>.cls-1{fill:#44bc17;}.cls-2{fill:#fff;}.cls-3{fill:#ed1c24;}</style></defs><title>staze-hr-grafika-white@vector</title><g id="Layer_2" data-name="Layer 2"><g id="Layer_1-2" data-name="Layer 1"><path class="cls-1" d="M44.11,127.51,54.3,149c-5.12,3.55-9.1,9.22-14.92,11.95a102,102,0,0,1-20.74,6.78,27,27,0,0,1-2.34,2.11c-4.73,4-11,6.38-15.55,10.43a.49.49,0,0,1-.75-.46c4.05-8.77,5.25-13.22,12.26-20.05,6.09-6.1,12.25-12.26,17.89-18.81C34.2,136.36,38.82,131.33,44.11,127.51Z"/><path class="cls-1" d="M257.4,149.17c-13.4-9.28-25.65-18.69-36.3-31.11-9.58-11.51-19-23.82-32.48-31.62a24.74,24.74,0,0,0-7.24-3c-4.79,13-16.07,27.58-26.61,36A120.52,120.52,0,0,1,122,137.55c-2.1,2.22-4.32,4.46-6.73,6.58a58.31,58.31,0,0,1-7.85,5.9A16.55,16.55,0,0,1,103.2,156c-5.49,4.28-14.14,7.11-20.66,8.24l30.78-64.83c4.23.58,8.39,2,12.73,3.14H127c1.88-.23,38.12-31.35,49.92-38.81,7.92-5.47,12.48,11.51,20.74,14.53,13.9,5,19.49,13.68,27.47,25.7a200.3,200.3,0,0,0,35.38,41.2C262.58,147,259.73,150.77,257.4,149.17Z"/><path class="cls-1" d="M197.17,118.46c2.33-3.93-2.68-9.17-6.9-6.32-14.36,10.14-25.58,18.12-34.59,33.9-8,14.42-24.73,22.62-34.59,36.3-1.88,2.51,2.11,4.9,4.28,3,10-9,21.82-16,33.39-23a4.81,4.81,0,0,0,2.11,1.37c.45,0-2.57,5.64-2.85,6a12,12,0,0,1-.74,1.65,46.68,46.68,0,0,0-4.62,6.44c-1.71,2.34,1.37,4.67,3.48,3.53,2.16-1,31.11-17.43,32.19-20.91C190,160.17,189.81,131.23,197.17,118.46Z"/><path class="cls-2" d="M108.86,15.26a52.13,52.13,0,0,0-82.4,62.21h0L63.9,156.32h0L72,173.42c2.71-5.71,8.15-17.11,8.15-17.11L118,76.59A52.14,52.14,0,0,0,108.86,15.26ZM72,66.2A16.78,16.78,0,1,1,88.78,49.43,16.77,16.77,0,0,1,72,66.2Z"/><path class="cls-3" d="M72,18.17a31.26,31.26,0,1,0,31.26,31.26A31.26,31.26,0,0,0,72,18.17Zm0,48A16.78,16.78,0,1,1,88.78,49.43,16.77,16.77,0,0,1,72,66.2Z"/></g></g></svg>