<?xml version="1.0" encoding="iso-8859-1"?>
<!-- Generator: Adobe Illustrator 19.0.0, SVG Export Plug-In . SVG Version: 6.00 Build 0)  -->
<svg version="1.1" id="Layer_1" xmlns="http://www.w3.org/2000/svg" xmlns:xlink="http://www.w3.org/1999/xlink" x="0px" y="0px"
	 viewBox="0 0 512 512" style="enable-background:new 0 0 512 512;" xml:space="preserve">
<g transform="translate(1 1)">
	<g>
		<path d="M417.254,178.2c-9.387,0-18.773,3.413-25.6,8.533V178.2c0-23.893-18.773-42.667-42.667-42.667
			c-9.387,0-18.773,3.413-25.6,8.533v-102.4C323.387,17.773,304.614-1,280.721-1c-23.893,0-42.667,18.773-42.667,42.667V127
			c-6.827-5.12-16.213-8.533-25.6-8.533c-23.893,0-42.667,18.773-42.667,42.667v74.24c-18.773-32.427-62.293-48.64-95.573-36.693
			c-4.267,0.853-7.68,3.413-11.947,5.973c-12.8,8.533-11.947,19.627-11.947,23.04c-0.853,5.12,0,5.973,11.947,19.627
			c14.507,17.067,46.08,52.907,65.707,88.747c1.707,1.707,24.747,39.253,50.347,67.413v22.187c0,46.933,38.4,85.333,85.333,85.333
			h85.333c36.693,0,75.093-30.72,83.627-66.56c2.56-10.24,5.12-17.92,8.533-21.333c8.533-10.24,18.773-34.133,18.773-65.707V220.867
			C459.921,196.973,441.147,178.2,417.254,178.2z M443.707,357.4c0,26.254-8.385,44.122-13.773,51.709
			c-0.962,0.518-1.806,1.206-2.44,2.051c-5.12,7.68-9.387,10.24-29.867,15.36c-4.267,0.853-6.827,5.973-5.973,10.24
			c1.707,3.413,5.12,5.973,8.533,5.973c0.853,0,1.707,0,1.707,0c5.831-1.633,10.7-3.01,14.897-4.412
			c-0.133,0.613-0.266,1.227-0.391,1.852c-5.973,29.013-37.547,53.76-66.56,53.76h-85.333c-37.547,0-68.267-30.72-68.267-68.267
			v-7.726c1.67,1.209,3.366,2.363,5.12,3.459c5.12,4.267,9.387,6.827,14.507,11.093c3.413,3.413,10.24,0.853,11.093-1.707
			c3.413-3.413,2.56-8.533-0.853-11.947c-5.12-5.12-10.24-8.533-15.36-11.947c-5.914-4.224-11.828-8.451-17.742-13.504
			c-25.358-26.455-49.672-65.856-49.672-65.856c-20.48-36.693-52.907-73.387-68.267-91.307c-2.56-3.413-5.973-7.68-7.68-9.387
			c0-2.56,0-4.267,5.973-7.68c3.413-1.707,5.973-3.413,8.533-4.267c22.187-7.68,58.88,2.56,75.093,30.72l13.191,19.786
			c0.109,0.523,0.26,1.041,0.462,1.547l8.533,17.067c1.707,3.413,10.24,5.12,11.093,3.413c3.413-1.707,5.12-6.827,3.413-11.093
			l-6.02-12.039c0.028-0.253,0.046-0.507,0.046-0.761v-102.4c0-14.507,11.093-25.6,25.6-25.6s25.6,11.093,25.6,25.6V178.2
			c0,0,0,0.001,0,0.001v93.012c0,5.12,3.413,8.533,8.533,8.533s8.533-3.413,8.533-8.533V178.2v-0.853V41.667
			c0-14.507,11.093-25.6,25.6-25.6s25.6,11.093,25.6,25.6V178.2v85.333c0,5.12,3.413,8.533,8.533,8.533s8.533-3.413,8.533-8.533
			V178.2c0-14.507,11.093-25.6,25.6-25.6c14.507,0,25.6,11.093,25.6,25.6v42.667v51.2c0,5.12,3.413,8.533,8.533,8.533
			s8.533-3.413,8.533-8.533v-51.2c0-14.507,11.093-25.6,25.6-25.6c14.507,0,25.6,11.093,25.6,25.6V357.4z"/>
	</g>
</g>
<g>
</g>
<g>
</g>
<g>
</g>
<g>
</g>
<g>
</g>
<g>
</g>
<g>
</g>
<g>
</g>
<g>
</g>
<g>
</g>
<g>
</g>
<g>
</g>
<g>
</g>
<g>
</g>
<g>
</g>
</svg>
