<svg xmlns="http://www.w3.org/2000/svg" viewBox="0 0 26 30"><title>ghost</title><path d="M21.2,4.23A11.6,11.6,0,0,0,1.4,12.44V29.17H5.68a7.43,7.43,0,0,0,.73-.64,2.24,2.24,0,0,1,1.74-.89,2.2,2.2,0,0,1,1.73.89,7.43,7.43,0,0,0,.73.64h4.78a7.43,7.43,0,0,0,.73-.64,2.14,2.14,0,0,1,3-.48,2,2,0,0,1,.48.48,7.53,7.53,0,0,0,.73.65H24.6V12.44A11.6,11.6,0,0,0,21.2,4.23Zm-11.86,9a1,1,0,0,1-2,0v-2a1,1,0,0,1,2,0Zm9.31,0a1,1,0,0,1-2,0v-2a1,1,0,0,1,2,0Z"/><path d="M22.71,28v2a3.69,3.69,0,0,1-2.39-.8,7.53,7.53,0,0,1-.73-.65,2.14,2.14,0,0,0-3-.48,2,2,0,0,0-.48.48,7.43,7.43,0,0,1-.73.64A3.7,3.7,0,0,1,13,30a3.79,3.79,0,0,1-2.4-.8,7.43,7.43,0,0,1-.73-.64,2.2,2.2,0,0,0-1.73-.89,2.24,2.24,0,0,0-1.74.89,7.43,7.43,0,0,1-.73.64,3.69,3.69,0,0,1-2.39.8V28A2.26,2.26,0,0,0,5,27.08a4.1,4.1,0,0,1,5.78-.46,3.33,3.33,0,0,1,.46.46,2.14,2.14,0,0,0,3,.48,2,2,0,0,0,.48-.48,4.1,4.1,0,0,1,5.78-.46,3.33,3.33,0,0,1,.46.46A2.2,2.2,0,0,0,22.71,28Z"/><path d="M22.71,30V28A1.29,1.29,0,0,0,24,26.71V13A11,11,0,0,0,2,13V26.68A1.29,1.29,0,0,0,3.26,28h0v2A3.3,3.3,0,0,1,0,26.69H0V13a13,13,0,0,1,26,0V26.68A3.3,3.3,0,0,1,22.72,30Z"/></svg>