<svg xmlns="http://www.w3.org/2000/svg" viewBox="0 0 90.27 94.94"><title>hike</title><path d="M9.31,42a3.92,3.92,0,0,0,1.8.4,3.79,3.79,0,0,0,3.4-2l4.1-7.7a4.69,4.69,0,0,1,1.8-1.9c.3-.2.5-.3.8-.5l-2.4,10.8a7.35,7.35,0,0,0,4.1,8.4l-7.4,24.8v.2l4.7.6h.2a1.78,1.78,0,0,0,1-.4l4.7-5,5-16.9,5.8,2.3c.2.1.3.2.3.4l1.6,9.7h8.9l-1.8-11.1a9.23,9.23,0,0,0-5.7-7.1l-6.6-2.6,3.6-12,.9,1.2a9.21,9.21,0,0,0,6.2,3.9l7,1.1,3,22.9,3-1.9-2.8-21.4a3.45,3.45,0,0,0,1.8-2.7,3.77,3.77,0,0,0-2.7-4.2l-.3-2a1.61,1.61,0,1,0-3.2.4l.2,1.1-5.1-.8a1.9,1.9,0,0,1-1.1-.7c-6.5-9.5-7.8-10-9.7-10.1l-6.3-.4c-1.2-.1-2.3-.2-11.7,5.4a13,13,0,0,0-4.7,4.9l-4.1,7.7A4.14,4.14,0,0,0,9.31,42Z"/><circle cx="32.5" cy="8.5" r="8.5"/><path d="M89,87.74l-12.9-12.5c-.2-.2-.4-.5-.6-.7l-7.9-12a5.3,5.3,0,0,0-7.2-1.6l-11.4,7-15.7.1a4.39,4.39,0,0,0-3.1,1.3l-7,7.3a4.1,4.1,0,0,1-3.6,1.3l-9.4-1.3a4.32,4.32,0,0,0-4.3,2.2l-5.4,9.8a4.28,4.28,0,0,0,3.7,6.3h81.6a4.33,4.33,0,0,0,3.9-2.2A4.08,4.08,0,0,0,89,87.74Z"/></svg>