<svg xmlns="http://www.w3.org/2000/svg" viewBox="0 0 278.01 217.09"><defs><style>.cls-1{fill:#37cc00;}.cls-2{fill:#fff;}.cls-3{fill:#ed1c24;}</style></defs><title>staze-logo-white@vector</title><g id="Layer_2" data-name="Layer 2"><g id="Layer_1-2" data-name="Layer 1"><path class="cls-1" d="M59.25,105l10.19,21.45c-5.12,3.55-9.1,9.22-14.92,12a102,102,0,0,1-20.74,6.78,27,27,0,0,1-2.34,2.11c-4.73,4.05-11,6.38-15.55,10.43a.49.49,0,0,1-.75-.46c4.05-8.77,5.25-13.22,12.26-20.05,6.09-6.1,12.25-12.26,17.89-18.81C49.34,113.81,54,108.78,59.25,105Z"/><path class="cls-1" d="M272.54,126.62c-13.4-9.28-25.65-18.69-36.3-31.11-9.58-11.51-19-23.82-32.48-31.62a24.74,24.74,0,0,0-7.24-3c-4.79,13-16.07,27.58-26.61,36A120.52,120.52,0,0,1,137.14,115c-2.1,2.22-4.32,4.46-6.73,6.58a58.31,58.31,0,0,1-7.85,5.9,16.55,16.55,0,0,1-4.22,5.93c-5.49,4.28-14.14,7.11-20.66,8.24l30.78-64.83c4.23.58,8.39,2,12.73,3.14h.91C144,79.73,180.22,48.61,192,41.15c7.92-5.47,12.48,11.51,20.74,14.53,13.9,5,19.49,13.68,27.47,25.7a200.3,200.3,0,0,0,35.38,41.2C277.72,124.46,274.87,128.22,272.54,126.62Z"/><path class="cls-1" d="M212.3,95.91c2.34-3.93-2.68-9.17-6.89-6.32-14.36,10.14-25.59,18.12-34.59,33.9-8,14.42-24.73,22.62-34.59,36.3-1.88,2.51,2.11,4.9,4.27,3,10-8.95,21.83-16,33.39-23a4.86,4.86,0,0,0,2.11,1.36c.46,0-2.56,5.65-2.85,6a10.41,10.41,0,0,1-.74,1.65,45.46,45.46,0,0,0-4.61,6.44c-1.71,2.33,1.36,4.67,3.47,3.53,2.17-1,31.12-17.44,32.2-20.91C205.18,137.62,205,108.67,212.3,95.91Z"/><path class="cls-2" d="M118.66,13.05A44.58,44.58,0,0,0,48.19,66.26h0l32,67.42h0l6.93,14.62c2.32-4.89,7-14.64,7-14.64L126.5,65.5A44.59,44.59,0,0,0,118.66,13.05ZM87.14,56.62a14.35,14.35,0,1,1,14.35-14.34A14.35,14.35,0,0,1,87.14,56.62Z"/><path class="cls-3" d="M87.14,15.54a26.74,26.74,0,1,0,26.73,26.74A26.74,26.74,0,0,0,87.14,15.54Zm0,41.08a14.35,14.35,0,1,1,14.35-14.34A14.35,14.35,0,0,1,87.14,56.62Z"/><path class="cls-2" d="M23,190.28A12.55,12.55,0,0,0,17,188.35a4.75,4.75,0,0,0-3.16,1,2.4,2.4,0,0,0-.69,1.54,1.79,1.79,0,0,0,1.08,1.54,18.86,18.86,0,0,0,3.31,1.16l2.93.92a14.6,14.6,0,0,1,5.7,3,8.18,8.18,0,0,1,2.7,6.55,12.42,12.42,0,0,1-3.55,9C21.88,216.47,17.72,217,14.1,217A20.43,20.43,0,0,1,0,212.08l4.7-7.47a19.26,19.26,0,0,0,3.78,2.54,10.38,10.38,0,0,0,4.62,1.08,6.22,6.22,0,0,0,3.47-.77,2.94,2.94,0,0,0,1.15-2.24,2.28,2.28,0,0,0-1.23-2A14.6,14.6,0,0,0,13.1,202l-2.77-.85A13.64,13.64,0,0,1,4.78,198a8.46,8.46,0,0,1-2.47-6.24,10.64,10.64,0,0,1,3.32-7.94c3.08-2.85,7.24-3.47,10.4-3.47a21.75,21.75,0,0,1,11.4,2.93Z"/><path class="cls-2" d="M46.85,190.43v25.43H35.75V190.43H31.9v-8.94h3.85v-11.1h11.1v11.1h6.86v8.94Z"/><path class="cls-2" d="M84.84,181.49H95.93v34.37H84.84V211.7A11.46,11.46,0,0,1,74.66,217c-4.93,0-9.09-1.23-12.86-5.24a18.14,18.14,0,0,1-5-12.86A19.56,19.56,0,0,1,62.1,185a16.58,16.58,0,0,1,11.95-4.71,12.91,12.91,0,0,1,10.79,5ZM70.73,192.36a8.6,8.6,0,0,0-2.54,6.24,8.87,8.87,0,0,0,2.31,6.16,9.11,9.11,0,0,0,6.55,2.7,8.22,8.22,0,0,0,5.78-2.39A9.12,9.12,0,0,0,83,192.28a9.29,9.29,0,0,0-6.17-2.39A8.74,8.74,0,0,0,70.73,192.36Z"/><path class="cls-2" d="M120,206.61h16.26v9.25H101.17l17.88-25.12H103.87v-9.25h33.9Z"/><path class="cls-2" d="M178.22,200.6H152.56a9.44,9.44,0,0,0,2.08,5.86,7.46,7.46,0,0,0,5.71,2.16,9.08,9.08,0,0,0,4.47-1,6.7,6.7,0,0,0,2.39-2.85l10.47,1.08a15.34,15.34,0,0,1-6.62,8.63c-3.32,2-7,2.54-10.87,2.54-5.16,0-9.71-.92-13.71-4.93a18.43,18.43,0,0,1-5.17-13.25,19.59,19.59,0,0,1,5.24-13.56c4.16-4.17,9.33-4.94,13.18-4.94s9.4.7,13.64,5.17c4.08,4.31,4.85,9.71,4.85,13.95ZM168,194a8.81,8.81,0,0,0-2.24-4,8.13,8.13,0,0,0-10.86.31A7.67,7.67,0,0,0,153,194Z"/><path class="cls-2" d="M194,203.07a7,7,0,1,1-7,7A6.94,6.94,0,0,1,194,203.07Z"/><path class="cls-2" d="M209.35,159.68h11.1v25.9a13.8,13.8,0,0,1,4.16-3.55,12.93,12.93,0,0,1,6.7-1.46c2.7,0,6.71.38,9.71,3.46,3.16,3.16,3.39,7.4,3.39,10v21.81H233.32V198.21c0-2.39-.08-5.16-1.85-6.86a6.32,6.32,0,0,0-4.32-1.54,6,6,0,0,0-4.39,1.7c-2.24,2.16-2.31,5.47-2.31,7.16v17.19h-11.1Z"/><path class="cls-2" d="M253,181.49h11.1v5.39a12.35,12.35,0,0,1,4.31-4.77,10.62,10.62,0,0,1,5.94-1.47,11.33,11.33,0,0,1,3.62.54l-.62,10.41a10.35,10.35,0,0,0-5-1.24,7.27,7.27,0,0,0-5.55,2.31c-2.46,2.62-2.69,6.32-2.69,9.25v14H253Z"/></g></g></svg>