<svg xmlns="http://www.w3.org/2000/svg" viewBox="0 0 261.21 163.48"><defs><style>.cls-1{fill:#288c07;}.cls-2{fill:#1c2123;}.cls-3{fill:#ed1c24;}</style></defs><title>staze-grafika@vector</title><g id="Layer_2" data-name="Layer 2"><g id="Layer_1-2" data-name="Layer 1"><path class="cls-1" d="M44.11,105,54.3,126.41c-5.12,3.55-9.1,9.22-14.92,12a102,102,0,0,1-20.74,6.78,27,27,0,0,1-2.34,2.11c-4.73,4.05-11,6.38-15.55,10.43a.49.49,0,0,1-.75-.46c4.05-8.77,5.25-13.22,12.26-20.05,6.09-6.1,12.25-12.26,17.89-18.81C34.2,113.81,38.82,108.78,44.11,105Z"/><path class="cls-1" d="M257.4,126.62c-13.4-9.28-25.65-18.69-36.3-31.11-9.58-11.51-19-23.82-32.48-31.62a24.74,24.74,0,0,0-7.24-3c-4.79,13-16.07,27.58-26.61,36A120.52,120.52,0,0,1,122,115c-2.1,2.22-4.32,4.46-6.73,6.58a58.31,58.31,0,0,1-7.85,5.9,16.55,16.55,0,0,1-4.22,5.93c-5.49,4.28-14.14,7.11-20.66,8.24l30.78-64.83c4.23.58,8.39,2,12.73,3.14H127c1.88-.23,38.12-31.35,49.92-38.81,7.92-5.47,12.48,11.51,20.74,14.53,13.9,5,19.49,13.68,27.47,25.7a200.3,200.3,0,0,0,35.38,41.2C262.58,124.46,259.73,128.22,257.4,126.62Z"/><path class="cls-1" d="M197.17,95.91c2.33-3.93-2.68-9.17-6.9-6.32-14.36,10.14-25.58,18.12-34.59,33.9-8,14.42-24.73,22.62-34.59,36.3-1.88,2.51,2.11,4.9,4.28,3,10-8.95,21.82-16,33.39-23a4.8,4.8,0,0,0,2.11,1.36c.45,0-2.57,5.65-2.85,6a12.6,12.6,0,0,1-.74,1.65,45.5,45.5,0,0,0-4.62,6.44c-1.71,2.33,1.37,4.67,3.48,3.53,2.16-1,31.11-17.44,32.19-20.91C190,137.62,189.81,108.67,197.17,95.91Z"/><path class="cls-2" d="M103.52,13.05A44.58,44.58,0,0,0,33.05,66.26h0l32,67.42h0L72,148.32c2.32-4.89,7-14.64,7-14.64L111.37,65.5A44.6,44.6,0,0,0,103.52,13.05ZM72,56.62A14.35,14.35,0,1,1,86.35,42.28,14.34,14.34,0,0,1,72,56.62Z"/><path class="cls-3" d="M72,15.54A26.74,26.74,0,1,0,98.74,42.28,26.74,26.74,0,0,0,72,15.54Zm0,41.08A14.35,14.35,0,1,1,86.35,42.28,14.34,14.34,0,0,1,72,56.62Z"/></g></g></svg>