<svg xmlns="http://www.w3.org/2000/svg" viewBox="0 0 84 96"><title>Asset 1</title><path d="M42,0a2,2,0,0,0-2,2v8a2,2,0,0,0,4,0V2A2,2,0,0,0,42,0ZM13.72,11.72a2,2,0,0,0-1.41,3.41L18,20.78A2,2,0,0,0,20.78,18l-5.65-5.66A2,2,0,0,0,13.72,11.72Zm56.56,0a2,2,0,0,0-1.4.59L63.22,18A2,2,0,0,0,66,20.78l5.66-5.65a2,2,0,0,0-1.41-3.41ZM42,18c-12.2,0-24,9.46-24,22.84,0,17.37,13,21,13,33.16H53c0-12.16,13-15.79,13-33.16C66,27.46,54.2,18,42,18Zm-6.16,6.06H36a2,2,0,0,1,.69,3.88,15,15,0,0,0-9.47,11.4,2,2,0,0,1-3.94-.71,18.93,18.93,0,0,1,12-14.41,2.23,2.23,0,0,1,.56-.16ZM2,40a2,2,0,0,0,0,4h8a2,2,0,0,0,0-4Zm72,0a2,2,0,0,0,0,4h8a2,2,0,0,0,0-4ZM31,78v4H53V78Zm0,8a4,4,0,0,0,4,4H49a4,4,0,0,0,4-4Zm7,6a4,4,0,0,0,8,0Z"/></svg>